<mxfile host="app.diagrams.net" modified="2024-07-09T04:39:33.968Z" agent="Mozilla/5.0 (Windows NT 10.0; Win64; x64) AppleWebKit/537.36 (KHTML, like Gecko) Chrome/126.0.0.0 Safari/537.36" etag="nwtRXVfLOWC-WFmzw_yd" version="24.6.4" type="device">
  <diagram name="Page-1" id="MoY-w5v-2-klXo-PcxFq">
    <mxGraphModel dx="1222" dy="758" grid="1" gridSize="10" guides="1" tooltips="1" connect="1" arrows="1" fold="1" page="1" pageScale="1" pageWidth="827" pageHeight="1169" math="0" shadow="0">
      <root>
        <mxCell id="0" />
        <mxCell id="1" parent="0" />
      </root>
    </mxGraphModel>
  </diagram>
</mxfile>
